<svg xmlns="http://www.w3.org/2000/svg" xmlns:xlink="http://www.w3.org/1999/xlink" width="40" zoomAndPan="magnify" viewBox="0 0 30 30.000001" height="40" preserveAspectRatio="xMidYMid meet" version="1.0"><defs><g/><clipPath id="3a86b0ca3c"><path d="M 1 0.0390625 L 4 0.0390625 L 4 10 L 1 10 Z M 1 0.0390625 " clip-rule="nonzero"/></clipPath><clipPath id="b0b4273b54"><path d="M 3 0.0390625 L 11 0.0390625 L 11 10 L 3 10 Z M 3 0.0390625 " clip-rule="nonzero"/></clipPath><clipPath id="82d3e2c736"><path d="M 9 0.0390625 L 19 0.0390625 L 19 10 L 9 10 Z M 9 0.0390625 " clip-rule="nonzero"/></clipPath><clipPath id="cc6c91c9ba"><rect x="0" width="20" y="0" height="14"/></clipPath><clipPath id="112534431a"><path d="M 8 7 L 16 7 L 16 16 L 8 16 Z M 8 7 " clip-rule="nonzero"/></clipPath><clipPath id="6491c98c3a"><path d="M 8.625 7.605469 L 15.878906 7.792969 L 15.691406 15.050781 L 8.4375 14.863281 Z M 8.625 7.605469 " clip-rule="nonzero"/></clipPath><clipPath id="d26bbe9d44"><path d="M 8.625 7.605469 L 15.878906 7.792969 L 15.691406 15.050781 L 8.4375 14.863281 Z M 8.625 7.605469 " clip-rule="nonzero"/></clipPath><clipPath id="f0f76225c6"><path d="M 0.0390625 1 L 2 1 L 2 4 L 0.0390625 4 Z M 0.0390625 1 " clip-rule="nonzero"/></clipPath><clipPath id="11b72c0460"><rect x="0" width="25" y="0" height="5"/></clipPath></defs><g transform="matrix(1, 0, 0, 1, 5, 6)"><g clip-path="url(#cc6c91c9ba)"><g clip-path="url(#3a86b0ca3c)"><g fill="#000000" fill-opacity="1"><g transform="translate(0.943539, 9.289961)"><g><path d="M 2.546875 -8.46875 L 2.546875 0 L 0.609375 0 L 0.609375 -8.46875 Z M 2.546875 -8.46875 "/></g></g></g></g><g clip-path="url(#b0b4273b54)"><g fill="#000000" fill-opacity="1"><g transform="translate(3.304121, 9.289961)"><g><path d="M 5.71875 -3.484375 L 6.703125 -3.484375 L 6.703125 -1.78125 L 5.71875 -1.78125 L 5.71875 0 L 3.90625 0 L 3.90625 -1.78125 L -0.25 -1.78125 L -0.25 -2.359375 L 3.8125 -8.46875 L 5.71875 -8.46875 Z M 3.90625 -5.890625 L 3.890625 -5.890625 L 2.375 -3.484375 L 3.90625 -3.484375 Z M 3.90625 -5.890625 "/></g></g></g></g><g clip-path="url(#82d3e2c736)"><g fill="#000000" fill-opacity="1"><g transform="translate(9.339153, 9.289961)"><g><path d="M 7.609375 0 L 7.21875 -5.015625 L 7.171875 -5.015625 L 5.4375 -0.046875 L 4.28125 -0.046875 L 2.546875 -5.015625 L 2.5 -5.015625 L 2.09375 0 L 0.171875 0 L 0.921875 -8.46875 L 2.984375 -8.46875 L 4.859375 -3.578125 L 6.734375 -8.46875 L 8.78125 -8.46875 L 9.546875 0 Z M 7.609375 0 "/></g></g></g></g></g></g><g clip-path="url(#112534431a)"><g clip-path="url(#6491c98c3a)"><g clip-path="url(#d26bbe9d44)"><path fill="#ffffff" d="M 15.769531 11.453125 L 14.703125 11.425781 C 12.886719 10.984375 12.488281 10.566406 12.140625 8.726562 L 12.167969 7.699219 L 12.035156 7.695312 L 12.007812 8.730469 C 11.5625 10.542969 11.144531 10.941406 9.3125 11.289062 L 8.53125 11.265625 L 8.527344 11.402344 L 9.308594 11.421875 C 11.121094 11.863281 11.519531 12.28125 11.867188 14.113281 L 11.839844 15.132812 L 11.976562 15.136719 L 12 14.128906 C 12.445312 12.308594 12.863281 11.910156 14.699219 11.5625 L 15.769531 11.589844 Z M 15.769531 11.453125 " fill-opacity="1" fill-rule="nonzero"/></g></g></g><g transform="matrix(1, 0, 0, 1, 3, 18)"><g clip-path="url(#11b72c0460)"><g clip-path="url(#f0f76225c6)"><g fill="#000000" fill-opacity="1"><g transform="translate(0.272652, 3.442744)"><g><path d="M 0.859375 0.03125 C 0.703125 0.03125 0.554688 -0.00390625 0.421875 -0.078125 C 0.296875 -0.148438 0.191406 -0.257812 0.109375 -0.40625 L 0.28125 -0.546875 C 0.445312 -0.304688 0.640625 -0.1875 0.859375 -0.1875 C 0.992188 -0.1875 1.101562 -0.222656 1.1875 -0.296875 C 1.269531 -0.367188 1.3125 -0.46875 1.3125 -0.59375 C 1.3125 -0.695312 1.273438 -0.785156 1.203125 -0.859375 C 1.128906 -0.929688 1.007812 -1.003906 0.84375 -1.078125 C 0.632812 -1.148438 0.484375 -1.238281 0.390625 -1.34375 C 0.296875 -1.457031 0.25 -1.585938 0.25 -1.734375 C 0.25 -1.828125 0.265625 -1.910156 0.296875 -1.984375 C 0.328125 -2.054688 0.367188 -2.117188 0.421875 -2.171875 C 0.484375 -2.222656 0.550781 -2.265625 0.625 -2.296875 C 0.695312 -2.328125 0.78125 -2.34375 0.875 -2.34375 C 1.144531 -2.34375 1.363281 -2.222656 1.53125 -1.984375 L 1.34375 -1.828125 C 1.28125 -1.929688 1.207031 -2.003906 1.125 -2.046875 C 1.050781 -2.085938 0.96875 -2.109375 0.875 -2.109375 C 0.757812 -2.109375 0.664062 -2.078125 0.59375 -2.015625 C 0.53125 -1.953125 0.5 -1.867188 0.5 -1.765625 C 0.5 -1.660156 0.53125 -1.570312 0.59375 -1.5 C 0.664062 -1.425781 0.785156 -1.359375 0.953125 -1.296875 C 1.160156 -1.210938 1.3125 -1.113281 1.40625 -1 C 1.507812 -0.894531 1.5625 -0.765625 1.5625 -0.609375 C 1.5625 -0.515625 1.539062 -0.425781 1.5 -0.34375 C 1.46875 -0.269531 1.421875 -0.203125 1.359375 -0.140625 C 1.296875 -0.0859375 1.222656 -0.046875 1.140625 -0.015625 C 1.054688 0.015625 0.960938 0.03125 0.859375 0.03125 Z M 0.859375 0.03125 "/></g></g></g></g><g fill="#000000" fill-opacity="1"><g transform="translate(3.034362, 3.442744)"><g><path d="M 1.328125 0.03125 C 1.171875 0.03125 1.019531 0 0.875 -0.0625 C 0.738281 -0.125 0.617188 -0.207031 0.515625 -0.3125 C 0.410156 -0.414062 0.328125 -0.539062 0.265625 -0.6875 C 0.203125 -0.832031 0.171875 -0.988281 0.171875 -1.15625 C 0.171875 -1.3125 0.203125 -1.460938 0.265625 -1.609375 C 0.328125 -1.753906 0.410156 -1.878906 0.515625 -1.984375 C 0.617188 -2.097656 0.738281 -2.1875 0.875 -2.25 C 1.019531 -2.3125 1.171875 -2.34375 1.328125 -2.34375 C 1.484375 -2.34375 1.628906 -2.3125 1.765625 -2.25 C 1.910156 -2.1875 2.035156 -2.097656 2.140625 -1.984375 C 2.242188 -1.878906 2.320312 -1.753906 2.375 -1.609375 C 2.4375 -1.472656 2.46875 -1.320312 2.46875 -1.15625 C 2.46875 -0.988281 2.4375 -0.832031 2.375 -0.6875 C 2.320312 -0.550781 2.242188 -0.425781 2.140625 -0.3125 C 2.035156 -0.207031 1.910156 -0.125 1.765625 -0.0625 C 1.628906 0 1.484375 0.03125 1.328125 0.03125 Z M 1.328125 -0.203125 C 1.453125 -0.203125 1.566406 -0.222656 1.671875 -0.265625 C 1.785156 -0.316406 1.878906 -0.382812 1.953125 -0.46875 C 2.035156 -0.5625 2.097656 -0.664062 2.140625 -0.78125 C 2.191406 -0.894531 2.21875 -1.019531 2.21875 -1.15625 C 2.21875 -1.289062 2.191406 -1.414062 2.140625 -1.53125 C 2.097656 -1.644531 2.035156 -1.742188 1.953125 -1.828125 C 1.878906 -1.910156 1.785156 -1.972656 1.671875 -2.015625 C 1.566406 -2.066406 1.453125 -2.09375 1.328125 -2.09375 C 1.191406 -2.09375 1.066406 -2.066406 0.953125 -2.015625 C 0.847656 -1.972656 0.753906 -1.910156 0.671875 -1.828125 C 0.597656 -1.742188 0.539062 -1.644531 0.5 -1.53125 C 0.457031 -1.414062 0.4375 -1.289062 0.4375 -1.15625 C 0.4375 -1.019531 0.457031 -0.894531 0.5 -0.78125 C 0.539062 -0.664062 0.597656 -0.5625 0.671875 -0.46875 C 0.753906 -0.382812 0.847656 -0.316406 0.953125 -0.265625 C 1.066406 -0.222656 1.191406 -0.203125 1.328125 -0.203125 Z M 1.328125 -0.203125 "/></g></g></g><g fill="#000000" fill-opacity="1"><g transform="translate(6.714335, 3.442744)"><g><path d="M 0.3125 -2.296875 L 0.546875 -2.296875 L 0.546875 -0.21875 L 1.484375 -0.21875 L 1.484375 0 L 0.3125 0 Z M 0.3125 -2.296875 "/></g></g></g><g fill="#000000" fill-opacity="1"><g transform="translate(9.379748, 3.442744)"><g><path d="M 1.125 0.03125 C 1 0.03125 0.882812 0.0078125 0.78125 -0.03125 C 0.675781 -0.0820312 0.585938 -0.148438 0.515625 -0.234375 C 0.441406 -0.316406 0.382812 -0.414062 0.34375 -0.53125 C 0.3125 -0.65625 0.296875 -0.789062 0.296875 -0.9375 L 0.296875 -2.296875 L 0.53125 -2.296875 L 0.53125 -0.953125 C 0.53125 -0.835938 0.546875 -0.734375 0.578125 -0.640625 C 0.609375 -0.546875 0.648438 -0.460938 0.703125 -0.390625 C 0.753906 -0.328125 0.816406 -0.273438 0.890625 -0.234375 C 0.960938 -0.203125 1.046875 -0.1875 1.140625 -0.1875 C 1.234375 -0.1875 1.316406 -0.203125 1.390625 -0.234375 C 1.460938 -0.273438 1.523438 -0.328125 1.578125 -0.390625 C 1.628906 -0.460938 1.671875 -0.546875 1.703125 -0.640625 C 1.734375 -0.734375 1.75 -0.835938 1.75 -0.953125 L 1.75 -2.296875 L 1.984375 -2.296875 L 1.984375 -0.9375 C 1.984375 -0.789062 1.957031 -0.65625 1.90625 -0.53125 C 1.863281 -0.414062 1.804688 -0.316406 1.734375 -0.234375 C 1.660156 -0.148438 1.570312 -0.0820312 1.46875 -0.03125 C 1.363281 0.0078125 1.25 0.03125 1.125 0.03125 Z M 1.125 0.03125 "/></g></g></g><g fill="#000000" fill-opacity="1"><g transform="translate(12.681412, 3.442744)"><g><path d="M 0.859375 -2.078125 L 0.109375 -2.078125 L 0.109375 -2.296875 L 1.859375 -2.296875 L 1.859375 -2.078125 L 1.09375 -2.078125 L 1.09375 0 L 0.859375 0 Z M 0.859375 -2.078125 "/></g></g></g><g fill="#000000" fill-opacity="1"><g transform="translate(15.673549, 3.442744)"><g><path d="M 0.3125 -2.296875 L 0.546875 -2.296875 L 0.546875 0 L 0.3125 0 Z M 0.3125 -2.296875 "/></g></g></g><g fill="#000000" fill-opacity="1"><g transform="translate(17.565143, 3.442744)"><g><path d="M 1.328125 0.03125 C 1.171875 0.03125 1.019531 0 0.875 -0.0625 C 0.738281 -0.125 0.617188 -0.207031 0.515625 -0.3125 C 0.410156 -0.414062 0.328125 -0.539062 0.265625 -0.6875 C 0.203125 -0.832031 0.171875 -0.988281 0.171875 -1.15625 C 0.171875 -1.3125 0.203125 -1.460938 0.265625 -1.609375 C 0.328125 -1.753906 0.410156 -1.878906 0.515625 -1.984375 C 0.617188 -2.097656 0.738281 -2.1875 0.875 -2.25 C 1.019531 -2.3125 1.171875 -2.34375 1.328125 -2.34375 C 1.484375 -2.34375 1.628906 -2.3125 1.765625 -2.25 C 1.910156 -2.1875 2.035156 -2.097656 2.140625 -1.984375 C 2.242188 -1.878906 2.320312 -1.753906 2.375 -1.609375 C 2.4375 -1.472656 2.46875 -1.320312 2.46875 -1.15625 C 2.46875 -0.988281 2.4375 -0.832031 2.375 -0.6875 C 2.320312 -0.550781 2.242188 -0.425781 2.140625 -0.3125 C 2.035156 -0.207031 1.910156 -0.125 1.765625 -0.0625 C 1.628906 0 1.484375 0.03125 1.328125 0.03125 Z M 1.328125 -0.203125 C 1.453125 -0.203125 1.566406 -0.222656 1.671875 -0.265625 C 1.785156 -0.316406 1.878906 -0.382812 1.953125 -0.46875 C 2.035156 -0.5625 2.097656 -0.664062 2.140625 -0.78125 C 2.191406 -0.894531 2.21875 -1.019531 2.21875 -1.15625 C 2.21875 -1.289062 2.191406 -1.414062 2.140625 -1.53125 C 2.097656 -1.644531 2.035156 -1.742188 1.953125 -1.828125 C 1.878906 -1.910156 1.785156 -1.972656 1.671875 -2.015625 C 1.566406 -2.066406 1.453125 -2.09375 1.328125 -2.09375 C 1.191406 -2.09375 1.066406 -2.066406 0.953125 -2.015625 C 0.847656 -1.972656 0.753906 -1.910156 0.671875 -1.828125 C 0.597656 -1.742188 0.539062 -1.644531 0.5 -1.53125 C 0.457031 -1.414062 0.4375 -1.289062 0.4375 -1.15625 C 0.4375 -1.019531 0.457031 -0.894531 0.5 -0.78125 C 0.539062 -0.664062 0.597656 -0.5625 0.671875 -0.46875 C 0.753906 -0.382812 0.847656 -0.316406 0.953125 -0.265625 C 1.066406 -0.222656 1.191406 -0.203125 1.328125 -0.203125 Z M 1.328125 -0.203125 "/></g></g></g><g fill="#000000" fill-opacity="1"><g transform="translate(21.245116, 3.442744)"><g><path d="M 0.546875 -1.796875 L 0.546875 0 L 0.3125 0 L 0.3125 -2.375 L 0.375 -2.375 L 1.9375 -0.515625 L 1.9375 -2.296875 L 2.171875 -2.296875 L 2.171875 0.0625 L 2.09375 0.0625 Z M 0.546875 -1.796875 "/></g></g></g></g></g></svg>