<svg xmlns="http://www.w3.org/2000/svg" xmlns:xlink="http://www.w3.org/1999/xlink" width="200" zoomAndPan="magnify" viewBox="0 0 150 44.999999" height="60" preserveAspectRatio="xMidYMid meet" version="1.0"><defs><g/><clipPath id="221f90cf12"><path d="M 129 6 L 140.960938 6 L 140.960938 21 L 129 21 Z M 129 6 " clip-rule="nonzero"/></clipPath><clipPath id="07dba07ec5"><rect x="0" width="141" y="0" height="22"/></clipPath><clipPath id="11abb155a9"><path d="M 53.664062 10.871094 L 65.664062 10.871094 L 65.664062 23.621094 L 53.664062 23.621094 Z M 53.664062 10.871094 " clip-rule="nonzero"/></clipPath><clipPath id="f46391f471"><path d="M 0.199219 2 L 4 2 L 4 6 L 0.199219 6 Z M 0.199219 2 " clip-rule="nonzero"/></clipPath><clipPath id="df61a84d4f"><rect x="0" width="42" y="0" height="8"/></clipPath></defs><g transform="matrix(1, 0, 0, 1, 4, 8)"><g clip-path="url(#07dba07ec5)"><g fill="#000000" fill-opacity="1"><g transform="translate(0.831418, 15.776869)"><g><path d="M 1.296875 -13.53125 C 1.648438 -13.882812 2.066406 -14.0625 2.546875 -14.0625 C 3.035156 -14.0625 3.457031 -13.882812 3.8125 -13.53125 C 4.164062 -13.1875 4.34375 -12.769531 4.34375 -12.28125 C 4.34375 -11.789062 4.164062 -11.367188 3.8125 -11.015625 C 3.457031 -10.671875 3.035156 -10.5 2.546875 -10.5 C 2.066406 -10.5 1.648438 -10.671875 1.296875 -11.015625 C 0.953125 -11.367188 0.78125 -11.789062 0.78125 -12.28125 C 0.78125 -12.769531 0.953125 -13.1875 1.296875 -13.53125 Z M 1.015625 -8.6875 L 1.015625 0 L 4.015625 0 L 4.015625 -8.6875 Z M 1.015625 -8.6875 "/></g></g></g><g fill="#000000" fill-opacity="1"><g transform="translate(4.624916, 15.776869)"><g><path d="M 1.015625 0 L 1.015625 -8.6875 L 4.015625 -8.6875 L 4.015625 -7.78125 L 4.046875 -7.78125 C 4.828125 -8.550781 5.65625 -8.9375 6.53125 -8.9375 C 7.164062 -8.9375 7.757812 -8.804688 8.3125 -8.546875 C 8.863281 -8.285156 9.28125 -7.882812 9.5625 -7.34375 C 10.445312 -8.40625 11.410156 -8.9375 12.453125 -8.9375 C 13.378906 -8.9375 14.175781 -8.675781 14.84375 -8.15625 C 15.507812 -7.644531 15.84375 -6.832031 15.84375 -5.71875 L 15.84375 0 L 12.84375 0 L 12.84375 -4.90625 C 12.84375 -5.375 12.710938 -5.757812 12.453125 -6.0625 C 12.203125 -6.375 11.820312 -6.53125 11.3125 -6.53125 C 10.875 -6.53125 10.535156 -6.394531 10.296875 -6.125 C 10.066406 -5.863281 9.941406 -5.550781 9.921875 -5.1875 L 9.921875 0 L 6.921875 0 L 6.921875 -4.90625 C 6.921875 -5.375 6.796875 -5.757812 6.546875 -6.0625 C 6.296875 -6.375 5.914062 -6.53125 5.40625 -6.53125 C 4.9375 -6.53125 4.585938 -6.382812 4.359375 -6.09375 C 4.128906 -5.8125 4.015625 -5.472656 4.015625 -5.078125 L 4.015625 0 Z M 1.015625 0 "/></g></g></g><g fill="#000000" fill-opacity="1"><g transform="translate(19.985692, 15.776869)"><g><path d="M 1.609375 -1.078125 C 0.796875 -1.960938 0.390625 -3.046875 0.390625 -4.328125 C 0.390625 -5.617188 0.796875 -6.707031 1.609375 -7.59375 C 2.421875 -8.488281 3.453125 -8.9375 4.703125 -8.9375 C 5.859375 -8.9375 6.804688 -8.578125 7.546875 -7.859375 L 7.546875 -8.6875 L 10.546875 -8.6875 L 10.546875 0 L 7.59375 0 L 7.59375 -0.984375 L 7.546875 -0.984375 C 6.804688 -0.160156 5.859375 0.25 4.703125 0.25 C 3.453125 0.25 2.421875 -0.191406 1.609375 -1.078125 Z M 4.15625 -5.8125 C 3.769531 -5.425781 3.578125 -4.929688 3.578125 -4.328125 C 3.578125 -3.734375 3.757812 -3.242188 4.125 -2.859375 C 4.5 -2.484375 4.992188 -2.296875 5.609375 -2.296875 C 6.191406 -2.296875 6.671875 -2.488281 7.046875 -2.875 C 7.429688 -3.257812 7.625 -3.75 7.625 -4.34375 C 7.625 -4.9375 7.425781 -5.425781 7.03125 -5.8125 C 6.644531 -6.195312 6.171875 -6.390625 5.609375 -6.390625 C 5.035156 -6.390625 4.550781 -6.195312 4.15625 -5.8125 Z M 4.15625 -5.8125 "/></g></g></g><g fill="#000000" fill-opacity="1"><g transform="translate(30.231799, 15.776869)"><g><path d="M 0.625 2.140625 L 3.078125 0.9375 C 3.535156 1.675781 4.320312 2.046875 5.4375 2.046875 C 5.957031 2.046875 6.4375 1.878906 6.875 1.546875 C 7.320312 1.210938 7.546875 0.703125 7.546875 0.015625 L 7.546875 -0.625 C 7.023438 -0.0390625 6.078125 0.25 4.703125 0.25 C 3.453125 0.25 2.421875 -0.191406 1.609375 -1.078125 C 0.796875 -1.960938 0.390625 -3.046875 0.390625 -4.328125 C 0.390625 -5.617188 0.796875 -6.707031 1.609375 -7.59375 C 2.421875 -8.488281 3.453125 -8.9375 4.703125 -8.9375 C 5.828125 -8.9375 6.757812 -8.59375 7.5 -7.90625 L 7.546875 -7.90625 L 7.546875 -8.6875 L 10.546875 -8.6875 L 10.546875 0.234375 C 10.546875 1.648438 10.078125 2.738281 9.140625 3.5 C 8.203125 4.269531 6.96875 4.65625 5.4375 4.65625 C 2.945312 4.65625 1.34375 3.816406 0.625 2.140625 Z M 4.15625 -5.8125 C 3.769531 -5.425781 3.578125 -4.929688 3.578125 -4.328125 C 3.578125 -3.734375 3.757812 -3.242188 4.125 -2.859375 C 4.5 -2.484375 4.992188 -2.296875 5.609375 -2.296875 C 6.191406 -2.296875 6.671875 -2.488281 7.046875 -2.875 C 7.429688 -3.257812 7.625 -3.75 7.625 -4.34375 C 7.625 -4.9375 7.425781 -5.425781 7.03125 -5.8125 C 6.644531 -6.195312 6.171875 -6.390625 5.609375 -6.390625 C 5.035156 -6.390625 4.550781 -6.195312 4.15625 -5.8125 Z M 4.15625 -5.8125 "/></g></g></g><g fill="#000000" fill-opacity="1"><g transform="translate(40.477907, 15.776869)"><g><path d="M 9.8125 -3.921875 L 3.5 -3.921875 C 3.5 -3.316406 3.695312 -2.867188 4.09375 -2.578125 C 4.488281 -2.285156 4.921875 -2.140625 5.390625 -2.140625 C 5.867188 -2.140625 6.25 -2.203125 6.53125 -2.328125 C 6.820312 -2.460938 7.144531 -2.71875 7.5 -3.09375 L 9.671875 -2.015625 C 8.765625 -0.503906 7.265625 0.25 5.171875 0.25 C 3.859375 0.25 2.734375 -0.195312 1.796875 -1.09375 C 0.859375 -1.988281 0.390625 -3.066406 0.390625 -4.328125 C 0.390625 -5.597656 0.859375 -6.679688 1.796875 -7.578125 C 2.734375 -8.484375 3.859375 -8.9375 5.171875 -8.9375 C 6.546875 -8.9375 7.664062 -8.539062 8.53125 -7.75 C 9.394531 -6.957031 9.828125 -5.820312 9.828125 -4.34375 C 9.828125 -4.132812 9.820312 -3.992188 9.8125 -3.921875 Z M 3.59375 -5.59375 L 6.890625 -5.59375 C 6.828125 -6.039062 6.648438 -6.382812 6.359375 -6.625 C 6.066406 -6.875 5.695312 -7 5.25 -7 C 4.75 -7 4.351562 -6.867188 4.0625 -6.609375 C 3.769531 -6.347656 3.613281 -6.007812 3.59375 -5.59375 Z M 3.59375 -5.59375 "/></g></g></g><g fill="#000000" fill-opacity="1"><g transform="translate(49.369133, 15.776869)"><g><path d="M 9.4375 -5.734375 L 11.0625 -5.734375 L 11.0625 -2.953125 L 9.4375 -2.953125 L 9.4375 0 L 6.453125 0 L 6.453125 -2.953125 L -0.421875 -2.953125 L -0.421875 -3.890625 L 6.28125 -13.96875 L 9.4375 -13.96875 Z M 6.453125 -9.71875 L 6.421875 -9.71875 L 3.921875 -5.734375 L 6.453125 -5.734375 Z M 6.453125 -9.71875 "/></g></g></g><g fill="#000000" fill-opacity="1"><g transform="translate(59.327328, 15.776869)"><g><path d="M 1.015625 0 L 1.015625 -8.6875 L 4.015625 -8.6875 L 4.015625 -7.78125 L 4.046875 -7.78125 C 4.828125 -8.550781 5.65625 -8.9375 6.53125 -8.9375 C 7.164062 -8.9375 7.757812 -8.804688 8.3125 -8.546875 C 8.863281 -8.285156 9.28125 -7.882812 9.5625 -7.34375 C 10.445312 -8.40625 11.410156 -8.9375 12.453125 -8.9375 C 13.378906 -8.9375 14.175781 -8.675781 14.84375 -8.15625 C 15.507812 -7.644531 15.84375 -6.832031 15.84375 -5.71875 L 15.84375 0 L 12.84375 0 L 12.84375 -4.90625 C 12.84375 -5.375 12.710938 -5.757812 12.453125 -6.0625 C 12.203125 -6.375 11.820312 -6.53125 11.3125 -6.53125 C 10.875 -6.53125 10.535156 -6.394531 10.296875 -6.125 C 10.066406 -5.863281 9.941406 -5.550781 9.921875 -5.1875 L 9.921875 0 L 6.921875 0 L 6.921875 -4.90625 C 6.921875 -5.375 6.796875 -5.757812 6.546875 -6.0625 C 6.296875 -6.375 5.914062 -6.53125 5.40625 -6.53125 C 4.9375 -6.53125 4.585938 -6.382812 4.359375 -6.09375 C 4.128906 -5.8125 4.015625 -5.472656 4.015625 -5.078125 L 4.015625 0 Z M 1.015625 0 "/></g></g></g><g fill="#000000" fill-opacity="1"><g transform="translate(74.688104, 15.776869)"><g><path d="M 1.609375 -1.078125 C 0.796875 -1.960938 0.390625 -3.046875 0.390625 -4.328125 C 0.390625 -5.617188 0.796875 -6.707031 1.609375 -7.59375 C 2.421875 -8.488281 3.453125 -8.9375 4.703125 -8.9375 C 5.859375 -8.9375 6.804688 -8.578125 7.546875 -7.859375 L 7.546875 -8.6875 L 10.546875 -8.6875 L 10.546875 0 L 7.59375 0 L 7.59375 -0.984375 L 7.546875 -0.984375 C 6.804688 -0.160156 5.859375 0.25 4.703125 0.25 C 3.453125 0.25 2.421875 -0.191406 1.609375 -1.078125 Z M 4.15625 -5.8125 C 3.769531 -5.425781 3.578125 -4.929688 3.578125 -4.328125 C 3.578125 -3.734375 3.757812 -3.242188 4.125 -2.859375 C 4.5 -2.484375 4.992188 -2.296875 5.609375 -2.296875 C 6.191406 -2.296875 6.671875 -2.488281 7.046875 -2.875 C 7.429688 -3.257812 7.625 -3.75 7.625 -4.34375 C 7.625 -4.9375 7.425781 -5.425781 7.03125 -5.8125 C 6.644531 -6.195312 6.171875 -6.390625 5.609375 -6.390625 C 5.035156 -6.390625 4.550781 -6.195312 4.15625 -5.8125 Z M 4.15625 -5.8125 "/></g></g></g><g fill="#000000" fill-opacity="1"><g transform="translate(84.934211, 15.776869)"><g><path d="M 1.015625 0 L 1.015625 -8.6875 L 4.015625 -8.6875 L 4.015625 -7.4375 L 4.046875 -7.4375 C 4.066406 -7.476562 4.101562 -7.53125 4.15625 -7.59375 C 4.207031 -7.664062 4.316406 -7.785156 4.484375 -7.953125 C 4.660156 -8.128906 4.84375 -8.285156 5.03125 -8.421875 C 5.21875 -8.554688 5.460938 -8.675781 5.765625 -8.78125 C 6.078125 -8.882812 6.390625 -8.9375 6.703125 -8.9375 C 7.035156 -8.9375 7.359375 -8.890625 7.671875 -8.796875 C 7.984375 -8.710938 8.210938 -8.625 8.359375 -8.53125 L 8.609375 -8.40625 L 7.34375 -5.859375 C 6.976562 -6.171875 6.460938 -6.328125 5.796875 -6.328125 C 5.429688 -6.328125 5.117188 -6.25 4.859375 -6.09375 C 4.597656 -5.9375 4.414062 -5.742188 4.3125 -5.515625 C 4.207031 -5.296875 4.128906 -5.101562 4.078125 -4.9375 C 4.035156 -4.78125 4.015625 -4.660156 4.015625 -4.578125 L 4.015625 0 Z M 1.015625 0 "/></g></g></g><g fill="#000000" fill-opacity="1"><g transform="translate(92.047165, 15.776869)"><g><path d="M 10.9375 -8.6875 L 6.8125 -4.546875 L 11.34375 0 L 7.484375 0 L 4.015625 -3.46875 L 4.015625 0 L 1.015625 0 L 1.015625 -14.5625 L 4.015625 -14.5625 L 4.015625 -5.65625 L 7.046875 -8.6875 Z M 10.9375 -8.6875 "/></g></g></g><g fill="#000000" fill-opacity="1"><g transform="translate(101.666634, 15.776869)"><g><path d="M 9.8125 -3.921875 L 3.5 -3.921875 C 3.5 -3.316406 3.695312 -2.867188 4.09375 -2.578125 C 4.488281 -2.285156 4.921875 -2.140625 5.390625 -2.140625 C 5.867188 -2.140625 6.25 -2.203125 6.53125 -2.328125 C 6.820312 -2.460938 7.144531 -2.71875 7.5 -3.09375 L 9.671875 -2.015625 C 8.765625 -0.503906 7.265625 0.25 5.171875 0.25 C 3.859375 0.25 2.734375 -0.195312 1.796875 -1.09375 C 0.859375 -1.988281 0.390625 -3.066406 0.390625 -4.328125 C 0.390625 -5.597656 0.859375 -6.679688 1.796875 -7.578125 C 2.734375 -8.484375 3.859375 -8.9375 5.171875 -8.9375 C 6.546875 -8.9375 7.664062 -8.539062 8.53125 -7.75 C 9.394531 -6.957031 9.828125 -5.820312 9.828125 -4.34375 C 9.828125 -4.132812 9.820312 -3.992188 9.8125 -3.921875 Z M 3.59375 -5.59375 L 6.890625 -5.59375 C 6.828125 -6.039062 6.648438 -6.382812 6.359375 -6.625 C 6.066406 -6.875 5.695312 -7 5.25 -7 C 4.75 -7 4.351562 -6.867188 4.0625 -6.609375 C 3.769531 -6.347656 3.613281 -6.007812 3.59375 -5.59375 Z M 3.59375 -5.59375 "/></g></g></g><g fill="#000000" fill-opacity="1"><g transform="translate(110.557866, 15.776869)"><g><path d="M 1.53125 -8.6875 L 1.53125 -11.921875 L 4.515625 -11.921875 L 4.515625 -8.6875 L 6.34375 -8.6875 L 6.34375 -6.40625 L 4.515625 -6.40625 L 4.515625 -3.640625 C 4.515625 -2.835938 4.742188 -2.4375 5.203125 -2.4375 C 5.316406 -2.4375 5.429688 -2.457031 5.546875 -2.5 C 5.671875 -2.550781 5.769531 -2.597656 5.84375 -2.640625 L 5.9375 -2.703125 L 6.6875 -0.28125 C 6.039062 0.0703125 5.304688 0.25 4.484375 0.25 C 3.921875 0.25 3.4375 0.148438 3.03125 -0.046875 C 2.625 -0.242188 2.316406 -0.507812 2.109375 -0.84375 C 1.898438 -1.175781 1.75 -1.523438 1.65625 -1.890625 C 1.570312 -2.253906 1.53125 -2.644531 1.53125 -3.0625 L 1.53125 -6.40625 L 0.265625 -6.40625 L 0.265625 -8.6875 Z M 1.53125 -8.6875 "/></g></g></g><g fill="#000000" fill-opacity="1"><g transform="translate(115.926411, 15.776869)"><g><path d="M 1.296875 -13.53125 C 1.648438 -13.882812 2.066406 -14.0625 2.546875 -14.0625 C 3.035156 -14.0625 3.457031 -13.882812 3.8125 -13.53125 C 4.164062 -13.1875 4.34375 -12.769531 4.34375 -12.28125 C 4.34375 -11.789062 4.164062 -11.367188 3.8125 -11.015625 C 3.457031 -10.671875 3.035156 -10.5 2.546875 -10.5 C 2.066406 -10.5 1.648438 -10.671875 1.296875 -11.015625 C 0.953125 -11.367188 0.78125 -11.789062 0.78125 -12.28125 C 0.78125 -12.769531 0.953125 -13.1875 1.296875 -13.53125 Z M 1.015625 -8.6875 L 1.015625 0 L 4.015625 0 L 4.015625 -8.6875 Z M 1.015625 -8.6875 "/></g></g></g><g fill="#000000" fill-opacity="1"><g transform="translate(119.719903, 15.776869)"><g><path d="M 1.015625 0 L 1.015625 -8.6875 L 4.015625 -8.6875 L 4.015625 -7.78125 L 4.046875 -7.78125 C 4.828125 -8.550781 5.65625 -8.9375 6.53125 -8.9375 C 6.96875 -8.9375 7.394531 -8.878906 7.8125 -8.765625 C 8.238281 -8.660156 8.644531 -8.488281 9.03125 -8.25 C 9.425781 -8.007812 9.742188 -7.671875 9.984375 -7.234375 C 10.222656 -6.804688 10.34375 -6.300781 10.34375 -5.71875 L 10.34375 0 L 7.34375 0 L 7.34375 -4.90625 C 7.34375 -5.363281 7.195312 -5.757812 6.90625 -6.09375 C 6.625 -6.4375 6.253906 -6.609375 5.796875 -6.609375 C 5.335938 -6.609375 4.925781 -6.429688 4.5625 -6.078125 C 4.195312 -5.734375 4.015625 -5.34375 4.015625 -4.90625 L 4.015625 0 Z M 1.015625 0 "/></g></g></g><g clip-path="url(#221f90cf12)"><g fill="#000000" fill-opacity="1"><g transform="translate(129.593422, 15.776869)"><g><path d="M 0.625 2.140625 L 3.078125 0.9375 C 3.535156 1.675781 4.320312 2.046875 5.4375 2.046875 C 5.957031 2.046875 6.4375 1.878906 6.875 1.546875 C 7.320312 1.210938 7.546875 0.703125 7.546875 0.015625 L 7.546875 -0.625 C 7.023438 -0.0390625 6.078125 0.25 4.703125 0.25 C 3.453125 0.25 2.421875 -0.191406 1.609375 -1.078125 C 0.796875 -1.960938 0.390625 -3.046875 0.390625 -4.328125 C 0.390625 -5.617188 0.796875 -6.707031 1.609375 -7.59375 C 2.421875 -8.488281 3.453125 -8.9375 4.703125 -8.9375 C 5.828125 -8.9375 6.757812 -8.59375 7.5 -7.90625 L 7.546875 -7.90625 L 7.546875 -8.6875 L 10.546875 -8.6875 L 10.546875 0.234375 C 10.546875 1.648438 10.078125 2.738281 9.140625 3.5 C 8.203125 4.269531 6.96875 4.65625 5.4375 4.65625 C 2.945312 4.65625 1.34375 3.816406 0.625 2.140625 Z M 4.15625 -5.8125 C 3.769531 -5.425781 3.578125 -4.929688 3.578125 -4.328125 C 3.578125 -3.734375 3.757812 -3.242188 4.125 -2.859375 C 4.5 -2.484375 4.992188 -2.296875 5.609375 -2.296875 C 6.191406 -2.296875 6.671875 -2.488281 7.046875 -2.875 C 7.429688 -3.257812 7.625 -3.75 7.625 -4.34375 C 7.625 -4.9375 7.425781 -5.425781 7.03125 -5.8125 C 6.644531 -6.195312 6.171875 -6.390625 5.609375 -6.390625 C 5.035156 -6.390625 4.550781 -6.195312 4.15625 -5.8125 Z M 4.15625 -5.8125 "/></g></g></g></g></g></g><g clip-path="url(#11abb155a9)"><path fill="#ffffff" d="M 65.980469 17.101562 L 64.164062 17.101562 C 61.054688 16.429688 60.363281 15.734375 59.691406 12.621094 L 59.691406 10.875 L 59.460938 10.875 L 59.460938 12.636719 C 58.789062 15.738281 58.09375 16.429688 54.988281 17.101562 L 53.664062 17.101562 L 53.664062 17.332031 L 54.988281 17.332031 C 58.09375 18.003906 58.789062 18.695312 59.460938 21.792969 L 59.460938 23.527344 L 59.691406 23.527344 L 59.691406 21.8125 C 60.363281 18.699219 61.054688 18.003906 64.164062 17.332031 L 65.980469 17.332031 Z M 65.980469 17.101562 " fill-opacity="1" fill-rule="nonzero"/></g><g transform="matrix(1, 0, 0, 1, 55, 28)"><g clip-path="url(#df61a84d4f)"><g clip-path="url(#f46391f471)"><g fill="#000000" fill-opacity="1"><g transform="translate(0.649116, 5.929359)"><g><path d="M 1.421875 0.0625 C 1.160156 0.0625 0.921875 0 0.703125 -0.125 C 0.492188 -0.25 0.316406 -0.425781 0.171875 -0.65625 L 0.46875 -0.90625 C 0.738281 -0.507812 1.054688 -0.3125 1.421875 -0.3125 C 1.648438 -0.3125 1.832031 -0.367188 1.96875 -0.484375 C 2.101562 -0.609375 2.171875 -0.769531 2.171875 -0.96875 C 2.171875 -1.144531 2.109375 -1.296875 1.984375 -1.421875 C 1.859375 -1.546875 1.660156 -1.660156 1.390625 -1.765625 C 1.046875 -1.898438 0.796875 -2.054688 0.640625 -2.234375 C 0.492188 -2.410156 0.421875 -2.625 0.421875 -2.875 C 0.421875 -3.019531 0.441406 -3.148438 0.484375 -3.265625 C 0.535156 -3.390625 0.609375 -3.492188 0.703125 -3.578125 C 0.796875 -3.671875 0.90625 -3.738281 1.03125 -3.78125 C 1.15625 -3.832031 1.296875 -3.859375 1.453125 -3.859375 C 1.890625 -3.859375 2.25 -3.664062 2.53125 -3.28125 L 2.21875 -3.03125 C 2.101562 -3.1875 1.984375 -3.300781 1.859375 -3.375 C 1.734375 -3.445312 1.597656 -3.484375 1.453125 -3.484375 C 1.253906 -3.484375 1.097656 -3.429688 0.984375 -3.328125 C 0.867188 -3.222656 0.8125 -3.082031 0.8125 -2.90625 C 0.8125 -2.738281 0.867188 -2.59375 0.984375 -2.46875 C 1.097656 -2.351562 1.289062 -2.238281 1.5625 -2.125 C 1.90625 -2 2.15625 -1.84375 2.3125 -1.65625 C 2.476562 -1.476562 2.5625 -1.257812 2.5625 -1 C 2.5625 -0.84375 2.535156 -0.695312 2.484375 -0.5625 C 2.429688 -0.4375 2.351562 -0.328125 2.25 -0.234375 C 2.144531 -0.140625 2.019531 -0.0664062 1.875 -0.015625 C 1.738281 0.0351562 1.585938 0.0625 1.421875 0.0625 Z M 1.421875 0.0625 "/></g></g></g></g><g fill="#000000" fill-opacity="1"><g transform="translate(5.206116, 5.929359)"><g><path d="M 2.1875 0.0625 C 1.925781 0.0625 1.675781 0.0078125 1.4375 -0.09375 C 1.207031 -0.195312 1.003906 -0.335938 0.828125 -0.515625 C 0.660156 -0.691406 0.523438 -0.894531 0.421875 -1.125 C 0.328125 -1.363281 0.28125 -1.625 0.28125 -1.90625 C 0.28125 -2.164062 0.328125 -2.414062 0.421875 -2.65625 C 0.523438 -2.894531 0.660156 -3.101562 0.828125 -3.28125 C 1.003906 -3.457031 1.207031 -3.597656 1.4375 -3.703125 C 1.675781 -3.804688 1.925781 -3.859375 2.1875 -3.859375 C 2.445312 -3.859375 2.691406 -3.804688 2.921875 -3.703125 C 3.148438 -3.597656 3.347656 -3.457031 3.515625 -3.28125 C 3.691406 -3.101562 3.828125 -2.894531 3.921875 -2.65625 C 4.023438 -2.425781 4.078125 -2.175781 4.078125 -1.90625 C 4.078125 -1.632812 4.023438 -1.378906 3.921875 -1.140625 C 3.828125 -0.898438 3.691406 -0.691406 3.515625 -0.515625 C 3.347656 -0.335938 3.148438 -0.195312 2.921875 -0.09375 C 2.691406 0.0078125 2.445312 0.0625 2.1875 0.0625 Z M 2.1875 -0.328125 C 2.394531 -0.328125 2.585938 -0.367188 2.765625 -0.453125 C 2.953125 -0.535156 3.109375 -0.644531 3.234375 -0.78125 C 3.367188 -0.925781 3.472656 -1.09375 3.546875 -1.28125 C 3.617188 -1.46875 3.65625 -1.675781 3.65625 -1.90625 C 3.65625 -2.125 3.617188 -2.328125 3.546875 -2.515625 C 3.472656 -2.710938 3.367188 -2.878906 3.234375 -3.015625 C 3.109375 -3.160156 2.953125 -3.269531 2.765625 -3.34375 C 2.585938 -3.425781 2.394531 -3.46875 2.1875 -3.46875 C 1.96875 -3.46875 1.769531 -3.425781 1.59375 -3.34375 C 1.414062 -3.269531 1.257812 -3.160156 1.125 -3.015625 C 1 -2.878906 0.894531 -2.710938 0.8125 -2.515625 C 0.738281 -2.328125 0.703125 -2.125 0.703125 -1.90625 C 0.703125 -1.675781 0.738281 -1.46875 0.8125 -1.28125 C 0.894531 -1.09375 1 -0.925781 1.125 -0.78125 C 1.257812 -0.644531 1.414062 -0.535156 1.59375 -0.453125 C 1.769531 -0.367188 1.96875 -0.328125 2.1875 -0.328125 Z M 2.1875 -0.328125 "/></g></g></g><g fill="#000000" fill-opacity="1"><g transform="translate(11.278311, 5.929359)"><g><path d="M 0.515625 -3.796875 L 0.90625 -3.796875 L 0.90625 -0.375 L 2.4375 -0.375 L 2.4375 0 L 0.515625 0 Z M 0.515625 -3.796875 "/></g></g></g><g fill="#000000" fill-opacity="1"><g transform="translate(15.676415, 5.929359)"><g><path d="M 1.84375 0.0625 C 1.644531 0.0625 1.457031 0.0234375 1.28125 -0.046875 C 1.113281 -0.128906 0.972656 -0.238281 0.859375 -0.375 C 0.742188 -0.519531 0.648438 -0.691406 0.578125 -0.890625 C 0.515625 -1.085938 0.484375 -1.304688 0.484375 -1.546875 L 0.484375 -3.796875 L 0.875 -3.796875 L 0.875 -1.578125 C 0.875 -1.390625 0.894531 -1.21875 0.9375 -1.0625 C 0.988281 -0.90625 1.054688 -0.769531 1.140625 -0.65625 C 1.234375 -0.550781 1.34375 -0.46875 1.46875 -0.40625 C 1.59375 -0.34375 1.726562 -0.3125 1.875 -0.3125 C 2.03125 -0.3125 2.164062 -0.34375 2.28125 -0.40625 C 2.40625 -0.46875 2.507812 -0.550781 2.59375 -0.65625 C 2.6875 -0.769531 2.753906 -0.90625 2.796875 -1.0625 C 2.847656 -1.21875 2.875 -1.390625 2.875 -1.578125 L 2.875 -3.796875 L 3.265625 -3.796875 L 3.265625 -1.546875 C 3.265625 -1.304688 3.226562 -1.085938 3.15625 -0.890625 C 3.082031 -0.691406 2.984375 -0.519531 2.859375 -0.375 C 2.734375 -0.238281 2.582031 -0.128906 2.40625 -0.046875 C 2.238281 0.0234375 2.050781 0.0625 1.84375 0.0625 Z M 1.84375 0.0625 "/></g></g></g><g fill="#000000" fill-opacity="1"><g transform="translate(21.124375, 5.929359)"><g><path d="M 1.421875 -3.4375 L 0.171875 -3.4375 L 0.171875 -3.796875 L 3.0625 -3.796875 L 3.0625 -3.4375 L 1.8125 -3.4375 L 1.8125 0 L 1.421875 0 Z M 1.421875 -3.4375 "/></g></g></g><g fill="#000000" fill-opacity="1"><g transform="translate(26.061595, 5.929359)"><g><path d="M 0.515625 -3.796875 L 0.90625 -3.796875 L 0.90625 0 L 0.515625 0 Z M 0.515625 -3.796875 "/></g></g></g><g fill="#000000" fill-opacity="1"><g transform="translate(29.182847, 5.929359)"><g><path d="M 2.1875 0.0625 C 1.925781 0.0625 1.675781 0.0078125 1.4375 -0.09375 C 1.207031 -0.195312 1.003906 -0.335938 0.828125 -0.515625 C 0.660156 -0.691406 0.523438 -0.894531 0.421875 -1.125 C 0.328125 -1.363281 0.28125 -1.625 0.28125 -1.90625 C 0.28125 -2.164062 0.328125 -2.414062 0.421875 -2.65625 C 0.523438 -2.894531 0.660156 -3.101562 0.828125 -3.28125 C 1.003906 -3.457031 1.207031 -3.597656 1.4375 -3.703125 C 1.675781 -3.804688 1.925781 -3.859375 2.1875 -3.859375 C 2.445312 -3.859375 2.691406 -3.804688 2.921875 -3.703125 C 3.148438 -3.597656 3.347656 -3.457031 3.515625 -3.28125 C 3.691406 -3.101562 3.828125 -2.894531 3.921875 -2.65625 C 4.023438 -2.425781 4.078125 -2.175781 4.078125 -1.90625 C 4.078125 -1.632812 4.023438 -1.378906 3.921875 -1.140625 C 3.828125 -0.898438 3.691406 -0.691406 3.515625 -0.515625 C 3.347656 -0.335938 3.148438 -0.195312 2.921875 -0.09375 C 2.691406 0.0078125 2.445312 0.0625 2.1875 0.0625 Z M 2.1875 -0.328125 C 2.394531 -0.328125 2.585938 -0.367188 2.765625 -0.453125 C 2.953125 -0.535156 3.109375 -0.644531 3.234375 -0.78125 C 3.367188 -0.925781 3.472656 -1.09375 3.546875 -1.28125 C 3.617188 -1.46875 3.65625 -1.675781 3.65625 -1.90625 C 3.65625 -2.125 3.617188 -2.328125 3.546875 -2.515625 C 3.472656 -2.710938 3.367188 -2.878906 3.234375 -3.015625 C 3.109375 -3.160156 2.953125 -3.269531 2.765625 -3.34375 C 2.585938 -3.425781 2.394531 -3.46875 2.1875 -3.46875 C 1.96875 -3.46875 1.769531 -3.425781 1.59375 -3.34375 C 1.414062 -3.269531 1.257812 -3.160156 1.125 -3.015625 C 1 -2.878906 0.894531 -2.710938 0.8125 -2.515625 C 0.738281 -2.328125 0.703125 -2.125 0.703125 -1.90625 C 0.703125 -1.675781 0.738281 -1.46875 0.8125 -1.28125 C 0.894531 -1.09375 1 -0.925781 1.125 -0.78125 C 1.257812 -0.644531 1.414062 -0.535156 1.59375 -0.453125 C 1.769531 -0.367188 1.96875 -0.328125 2.1875 -0.328125 Z M 2.1875 -0.328125 "/></g></g></g><g fill="#000000" fill-opacity="1"><g transform="translate(35.255043, 5.929359)"><g><path d="M 0.890625 -2.953125 L 0.890625 0 L 0.515625 0 L 0.515625 -3.90625 L 0.625 -3.90625 L 3.1875 -0.84375 L 3.1875 -3.796875 L 3.578125 -3.796875 L 3.578125 0.109375 L 3.453125 0.109375 Z M 0.890625 -2.953125 "/></g></g></g></g></g></svg>